<svg xmlns="http://www.w3.org/2000/svg" xmlns:xlink="http://www.w3.org/1999/xlink" viewBox="0 0 1845 450">
  <defs>
    <linearGradient id="linear-gradient" x1="1.01" y1="-0.014" x2="-0.073" y2="1.065" gradientUnits="objectBoundingBox">
      <stop offset="0" stop-color="#fff"/>
      <stop offset="0.389" stop-color="#3f9"/>
      <stop offset="0.942" stop-color="#75d6fc"/>
      <stop offset="1" stop-color="#77d5ff"/>
    </linearGradient>
    <clipPath id="clip-logo-with-text">
      <rect width="1845" height="450"/>
    </clipPath>
  </defs>
  <g id="logo-with-text" clip-path="url(#clip-logo-with-text)">
    <g id="Logo" transform="translate(0 0)">
      <path id="Subtraction_1" data-name="Subtraction 1" d="M194,419a226.662,226.662,0,0,1-45.346-4.571A223.767,223.767,0,0,1,68.2,380.574a225.657,225.657,0,0,1-81.519-98.993,223.872,223.872,0,0,1-13.11-42.235,227.2,227.2,0,0,1,0-90.691A223.767,223.767,0,0,1,7.427,68.2,225.655,225.655,0,0,1,106.42-13.318a223.875,223.875,0,0,1,42.235-13.11,227.2,227.2,0,0,1,90.691,0A223.767,223.767,0,0,1,319.8,7.427a225.657,225.657,0,0,1,81.519,98.993,223.869,223.869,0,0,1,13.11,42.235,227.2,227.2,0,0,1,0,90.691A223.767,223.767,0,0,1,380.574,319.8a225.658,225.658,0,0,1-98.993,81.519,223.872,223.872,0,0,1-42.235,13.11A226.661,226.661,0,0,1,194,419Zm0-385a161.177,161.177,0,0,0-32.246,3.251,159.122,159.122,0,0,0-57.212,24.075,160.468,160.468,0,0,0-57.969,70.4,159.193,159.193,0,0,0-9.323,30.034,161.558,161.558,0,0,0,0,64.491,159.121,159.121,0,0,0,24.075,57.212,160.466,160.466,0,0,0,70.4,57.968,159.192,159.192,0,0,0,30.034,9.323,161.561,161.561,0,0,0,64.491,0,159.124,159.124,0,0,0,57.212-24.075,160.464,160.464,0,0,0,57.968-70.395,159.191,159.191,0,0,0,9.323-30.034,161.561,161.561,0,0,0,0-64.491,159.125,159.125,0,0,0-24.075-57.212A160.466,160.466,0,0,0,256.28,46.574a159.192,159.192,0,0,0-30.034-9.323A161.178,161.178,0,0,0,194,34Z" transform="translate(31 31)" fill="url(#linear-gradient)"/>
    </g>
    <path id="Path_1" data-name="Path 1" d="M38.5,0a7.255,7.255,0,0,1-5.6-2.275A8.182,8.182,0,0,1,30.8-8.05V-236.6a8.676,8.676,0,0,1,2.1-6.125A7.255,7.255,0,0,1,38.5-245h79.1q52.85,0,76.3,23.625t24.15,71.225q.35,10.15.35,27.3t-.35,27.65q-.7,33.25-10.675,54.075A64.193,64.193,0,0,1,176.05-10.15Q154.7,0,119.35,0Zm79.1-29.05q24.5,0,39.025-6.825a41.649,41.649,0,0,0,21-21.35Q184.1-71.75,184.8-96.6q.7-21,.7-26.25,0-5.6-.7-25.9-.7-35-16.625-51.275T115.85-216.3H63.7V-29.05ZM339.15,3.5q-35.7,0-57.05-22.225T258.65-79.45l-.35-11.9.35-11.55q2.1-37.8,23.45-60.2t57.05-22.4q38.5,0,59.675,24.5T420-94.5v6.3a7.825,7.825,0,0,1-2.275,5.775,7.825,7.825,0,0,1-5.775,2.275H290.5V-77q1.05,22.75,14,38.85t34.3,16.1q16.45,0,26.775-6.475T381.15-42q3.15-4.2,4.9-5.075A14.422,14.422,0,0,1,392-47.95h15.4a8.637,8.637,0,0,1,5.425,1.75,5.479,5.479,0,0,1,2.275,4.55q0,7.7-9.45,18.55T378.875-4.375Q361.55,3.5,339.15,3.5Zm49-107.45V-105q0-24.5-13.3-39.9t-35.7-15.4q-22.75,0-35.7,15.4T290.5-105v1.05ZM519.75,0q-9.1,0-12.95-8.75l-65.1-162.4a12.282,12.282,0,0,1-.35-3.5,7.123,7.123,0,0,1,2.1-5.25,6.716,6.716,0,0,1,4.9-2.1h16.1q5.6,0,8.4,5.6l53.9,139.65,53.9-139.65a8.249,8.249,0,0,1,2.975-3.85A8.636,8.636,0,0,1,589.05-182h16.1a6.716,6.716,0,0,1,4.9,2.1,7.123,7.123,0,0,1,2.1,5.25l-.7,3.5L546.7-8.75Q542.85,0,533.75,0Zm196,3.5q-37.45,0-58.45-21.175T635.25-77l-.35-14,.35-14q1.05-38.15,22.05-59.325T715.75-185.5q25.2,0,42.525,8.925t25.9,22.225q8.575,13.3,9.275,26.6a6.419,6.419,0,0,1-2.275,5.6,8.294,8.294,0,0,1-5.775,2.45H770a7.633,7.633,0,0,1-5.25-1.575,16.475,16.475,0,0,1-3.5-5.775q-6.3-17.15-17.325-24.325T716.1-158.55q-22.05,0-35,13.65t-14,41.65L666.75-91l.35,12.25q1.05,28,14,41.65t35,13.65q17.15,0,28-7.175T761.25-54.95a16.475,16.475,0,0,1,3.5-5.775A7.633,7.633,0,0,1,770-62.3h15.4a8.294,8.294,0,0,1,5.775,2.45,6.419,6.419,0,0,1,2.275,5.6q-.7,12.95-9.275,26.25t-25.9,22.4Q740.95,3.5,715.75,3.5Zm193.55,0q-38.5,0-59.325-21.7T827.75-75.95L827.4-91l.35-15.05q1.4-36.05,22.575-57.75T909.3-185.5q37.8,0,58.975,21.7t22.575,57.75q.7,7.7.7,15.05t-.7,15.05q-1.4,36.05-22.225,57.75T909.3,3.5Zm0-26.25q22.4,0,35.525-14.175T959-77.7q.35-3.5.35-13.3T959-104.3q-1.05-26.6-14.175-40.775T909.3-159.25q-22.4,0-35.525,14.175T859.6-104.3L859.25-91l.35,13.3q1.05,26.6,14.175,40.775T909.3-22.75ZM1043.7,0a7.825,7.825,0,0,1-5.775-2.275,7.824,7.824,0,0,1-2.275-5.775v-165.9a7.824,7.824,0,0,1,2.275-5.775A7.825,7.825,0,0,1,1043.7-182h14.7a7.255,7.255,0,0,1,5.6,2.275,8.182,8.182,0,0,1,2.1,5.775v11.9q18.9-23.45,51.1-23.45,38.5,0,54.6,32.2a61.806,61.806,0,0,1,23.975-23.45,69.862,69.862,0,0,1,34.825-8.75q28.7,0,46.9,19.6t18.2,56.7V-8.05a7.824,7.824,0,0,1-2.275,5.775A7.825,7.825,0,0,1,1287.65,0H1272.6a7.825,7.825,0,0,1-5.775-2.275,7.825,7.825,0,0,1-2.275-5.775v-98q0-28-11.55-40.075T1222.55-158.2q-16.8,0-28.875,12.425T1181.6-106.05v98a7.824,7.824,0,0,1-2.275,5.775A7.825,7.825,0,0,1,1173.55,0h-15.4a7.825,7.825,0,0,1-5.775-2.275A7.824,7.824,0,0,1,1150.1-8.05v-98q0-27.65-12.075-39.9T1108.1-158.2a39.125,39.125,0,0,0-28.875,12.25q-12.075,12.25-12.075,39.55V-8.05a7.824,7.824,0,0,1-2.275,5.775A7.825,7.825,0,0,1,1059.1,0Z" transform="translate(551 345)"/>
  </g>
</svg>
