<svg xmlns="http://www.w3.org/2000/svg" xmlns:xlink="http://www.w3.org/1999/xlink" width="512" height="512" viewBox="0 0 512 512">
  <defs>
    <linearGradient id="linear-gradient" x1="1.01" y1="-0.014" x2="-0.073" y2="1.065" gradientUnits="objectBoundingBox">
      <stop offset="0" stop-color="#fff"/>
      <stop offset="0.389" stop-color="#3f9"/>
      <stop offset="0.942" stop-color="#75d6fc"/>
      <stop offset="1" stop-color="#77d5ff"/>
    </linearGradient>
    <clipPath id="clip-logo">
      <rect width="512" height="512"/>
    </clipPath>
  </defs>
  <g id="logo" clip-path="url(#clip-logo)">
    <g id="Logo-2" data-name="Logo" transform="translate(31 31)">
      <path id="Subtraction_1" data-name="Subtraction 1" d="M194,419a226.662,226.662,0,0,1-45.346-4.571A223.767,223.767,0,0,1,68.2,380.574a225.657,225.657,0,0,1-81.519-98.993,223.872,223.872,0,0,1-13.11-42.235,227.2,227.2,0,0,1,0-90.691A223.767,223.767,0,0,1,7.427,68.2,225.655,225.655,0,0,1,106.42-13.318a223.875,223.875,0,0,1,42.235-13.11,227.2,227.2,0,0,1,90.691,0A223.767,223.767,0,0,1,319.8,7.427a225.657,225.657,0,0,1,81.519,98.993,223.869,223.869,0,0,1,13.11,42.235,227.2,227.2,0,0,1,0,90.691A223.767,223.767,0,0,1,380.574,319.8a225.658,225.658,0,0,1-98.993,81.519,223.872,223.872,0,0,1-42.235,13.11A226.661,226.661,0,0,1,194,419Zm0-385a161.177,161.177,0,0,0-32.246,3.251,159.122,159.122,0,0,0-57.212,24.075,160.468,160.468,0,0,0-57.969,70.4,159.193,159.193,0,0,0-9.323,30.034,161.558,161.558,0,0,0,0,64.491,159.121,159.121,0,0,0,24.075,57.212,160.466,160.466,0,0,0,70.4,57.968,159.192,159.192,0,0,0,30.034,9.323,161.561,161.561,0,0,0,64.491,0,159.124,159.124,0,0,0,57.212-24.075,160.464,160.464,0,0,0,57.968-70.395,159.191,159.191,0,0,0,9.323-30.034,161.561,161.561,0,0,0,0-64.491,159.125,159.125,0,0,0-24.075-57.212A160.466,160.466,0,0,0,256.28,46.574a159.192,159.192,0,0,0-30.034-9.323A161.178,161.178,0,0,0,194,34Z" transform="translate(31 31)" fill="url(#linear-gradient)"/>
    </g>
  </g>
</svg>
